<svg width="114" height="24" viewBox="0 0 114 24" fill="none" xmlns="http://www.w3.org/2000/svg">
<path d="M0.76 23V6.52H13.368C15.224 6.52 16.5893 6.98933 17.464 7.928C18.3387 8.84533 18.776 10.0613 18.776 11.576V15H14.072V12.152C14.072 10.872 13.432 10.232 12.152 10.232H5.464V23H0.76ZM21.3225 23V0.119999H25.9625V6.52H35.6905C37.5678 6.52 38.9332 6.98933 39.7865 7.928C40.6612 8.84533 41.0985 10.0613 41.0985 11.576V23H36.4585V12.12C36.4585 10.84 35.8185 10.2 34.5385 10.2H25.9625V23H21.3225ZM48.8315 23C47.1035 23 45.7808 22.5627 44.8635 21.688C43.9462 20.8133 43.4875 19.5653 43.4875 17.944C43.4875 16.344 43.9462 15.1067 44.8635 14.232C45.7808 13.3573 47.1035 12.92 48.8315 12.92H61.1195V12.152C61.1195 10.8507 60.4795 10.2 59.1995 10.2H45.6315V6.52H60.4155C62.3568 6.52 63.7328 6.968 64.5435 7.864C65.3542 8.73867 65.7595 9.976 65.7595 11.576V23H48.8315ZM49.6635 19.32H61.1195V16.6H49.6635C49.2582 16.6 48.9382 16.728 48.7035 16.984C48.4902 17.2187 48.3835 17.5387 48.3835 17.944C48.3835 18.3493 48.4902 18.68 48.7035 18.936C48.9382 19.192 49.2582 19.32 49.6635 19.32ZM77.7393 23.16C74.8806 23.16 72.6513 22.456 71.0513 21.048C69.4513 19.6187 68.6513 17.528 68.6513 14.776C68.6513 12.0027 69.4513 9.912 71.0513 8.504C72.6513 7.07467 74.8806 6.36 77.7393 6.36H88.4593V10.04H77.7393C76.3526 10.04 75.2859 10.424 74.5393 11.192C73.8139 11.96 73.4513 13.1547 73.4513 14.776C73.4513 16.376 73.8139 17.56 74.5393 18.328C75.2859 19.096 76.3526 19.48 77.7393 19.48H88.7793V23.16H77.7393ZM99.6143 23.16C96.7556 23.16 94.5263 22.456 92.9263 21.048C91.3263 19.6187 90.5263 17.528 90.5263 14.776C90.5263 12.0027 91.3263 9.912 92.9263 8.504C94.5263 7.07467 96.7556 6.36 99.6143 6.36H107.614C109.492 6.36 110.921 6.808 111.902 7.704C112.905 8.57867 113.406 9.83733 113.406 11.48C113.406 14.8293 111.476 16.504 107.614 16.504H95.5183C95.9663 18.488 97.3316 19.48 99.6143 19.48H112.574V23.16H99.6143ZM99.6143 10.04C97.4169 10.04 96.0623 10.968 95.5503 12.824H107.39C107.817 12.824 108.148 12.696 108.382 12.44C108.638 12.184 108.766 11.832 108.766 11.384C108.766 10.488 108.308 10.04 107.39 10.04H99.6143Z" fill="#12171B"/>
</svg>
